<svg
        width="504"
        height="495"
        viewBox="0 0 504 495"
        fill="none"
        xmlns="http://www.w3.org/2000/svg"
      >
        <g id="Group 2">
          <path
            id="logo-3d"
            d="M54.5714 450.679H501L447.429 492.643H1M54.5714 450.679L1 492.643L54.5714 450.679ZM54.5714 450.679V2.46429L1 47.1072V492.643L54.5714 450.679Z"
            stroke="black"
            stroke-width="1.78571"
          />
          <path
            id="logo-box"
            d="M501 4.25002H54.5714V450.679H501V4.25002Z"
            fill="none"
          />
          <path
            id="logo-border"
            d="M501 4.25002H54.5714V450.679H501V4.25002Z"
            stroke="black"
            stroke-width="1.78571"
          />
          <path
            id="logo-text"
            d="M282.441 339.457C284.909 343.114 287.994 347.96 291.696 353.994C295.553 359.846 299.486 366.429 303.497 373.743C307.508 380.874 311.441 388.371 315.298 396.234C319.309 404.097 322.702 411.686 325.479 419H300.951C297.867 412.051 294.473 405.011 290.771 397.88C287.223 390.749 283.598 383.983 279.895 377.583C276.193 371 272.491 364.874 268.789 359.206C265.241 353.537 262.001 348.6 259.07 344.394C257.065 344.577 254.983 344.669 252.823 344.669C250.818 344.669 248.735 344.669 246.575 344.669H226.445V419H204V231.663C210.325 229.834 217.343 228.646 225.056 228.097C232.924 227.366 240.097 227 246.575 227C269.097 227 286.22 232.029 297.944 242.086C309.822 252.143 315.761 267.137 315.761 287.069C315.761 299.686 312.907 310.474 307.199 319.434C301.646 328.394 293.393 335.069 282.441 339.457ZM248.427 250.314C238.863 250.314 231.535 250.589 226.445 251.137V322.726H242.41C250.123 322.726 257.065 322.269 263.235 321.354C269.406 320.44 274.573 318.703 278.738 316.143C283.058 313.583 286.374 310.017 288.688 305.446C291.002 300.691 292.159 294.474 292.159 286.794C292.159 279.663 291.002 273.72 288.688 268.966C286.374 264.211 283.212 260.463 279.201 257.72C275.345 254.977 270.717 253.057 265.318 251.96C260.073 250.863 254.443 250.314 248.427 250.314ZM427.962 339.457C430.43 343.114 433.515 347.96 437.217 353.994C441.074 359.846 445.007 366.429 449.018 373.743C453.029 380.874 456.962 388.371 460.819 396.234C464.83 404.097 468.223 411.686 471 419H446.473C443.388 412.051 439.994 405.011 436.292 397.88C432.744 390.749 429.119 383.983 425.416 377.583C421.714 371 418.012 364.874 414.31 359.206C410.762 353.537 407.522 348.6 404.592 344.394C402.586 344.577 400.504 344.669 398.344 344.669C396.339 344.669 394.256 344.669 392.097 344.669H371.966V419H349.521V231.663C355.846 229.834 362.865 228.646 370.577 228.097C378.445 227.366 385.618 227 392.097 227C414.618 227 431.741 232.029 443.465 242.086C455.343 252.143 461.282 267.137 461.282 287.069C461.282 299.686 458.428 310.474 452.72 319.434C447.167 328.394 438.914 335.069 427.962 339.457ZM393.948 250.314C384.384 250.314 377.056 250.589 371.966 251.137V322.726H387.932C395.645 322.726 402.586 322.269 408.757 321.354C414.927 320.44 420.095 318.703 424.26 316.143C428.579 313.583 431.895 310.017 434.209 305.446C436.523 300.691 437.68 294.474 437.68 286.794C437.68 279.663 436.523 273.72 434.209 268.966C431.895 264.211 428.733 260.463 424.722 257.72C420.866 254.977 416.238 253.057 410.839 251.96C405.594 250.863 399.964 250.314 393.948 250.314Z"
            stroke="black"
            stroke-width="3.57143"
          />
        </g>
      </svg>